<?xml version="1.0" encoding="UTF-8" standalone="no"?>
<svg width="20px" height="27px" viewBox="0 0 20 27" version="1.1" xmlns="http://www.w3.org/2000/svg" xmlns:xlink="http://www.w3.org/1999/xlink">
    <!-- Generator: Sketch 39.1 (31720) - http://www.bohemiancoding.com/sketch -->
    <title>Shape</title>
    <desc>Created with Sketch.</desc>
    <defs></defs>
    <g id="Web" stroke="none" stroke-width="1" fill="none" fill-rule="evenodd">
        <g id="00_OnePage" transform="translate(-730.000000, -4968.000000)" fill="#5C6670">
            <g id="left" transform="translate(250.000000, 4575.000000)">
                <g id="paperclip" transform="translate(228.000000, 391.000000)">
                    <path d="M271.899212,11.1513022 L263.387642,25.8717877 C261.778887,28.6541624 258.202991,29.6108886 255.416463,28.0044579 C252.630009,26.3981001 251.671855,22.8276059 253.28061,20.0452312 L262.26472,4.50760129 C263.577316,2.23753707 266.494723,1.45692902 268.768249,2.76756877 C271.041701,4.07820852 271.823474,6.99134092 270.510878,9.26140514 L262.937524,22.3593431 C261.913565,24.1302237 259.637702,24.7392351 257.864178,23.7168019 C256.090655,22.6943687 255.480881,20.421825 256.50484,18.6509444 L263.605727,6.3702237 C263.813221,6.01127818 264.272907,5.88832366 264.632315,6.09550859 C264.991796,6.30269351 265.114934,6.76169455 264.90744,7.12064007 L257.806553,19.4013608 C257.196998,20.45559 257.559985,21.8083815 258.615715,22.4170282 C259.671518,23.025675 261.026328,22.663156 261.635883,21.6089268 L269.209238,8.51098877 C270.107429,6.95757583 269.572517,4.96419574 268.016785,4.06726951 C266.461054,3.1704162 264.464625,3.7045318 263.566433,5.25794473 L254.582323,20.7956475 C253.387899,22.861298 254.099266,25.51204 256.168,26.7046842 C258.236733,27.8973285 260.891504,27.1870218 262.085856,25.1213713 L270.597425,10.4009587 C270.804919,10.0420132 271.264606,9.91905867 271.624014,10.1262436 C271.983568,10.3334285 272.106706,10.7923566 271.899212,11.1513022 L271.899212,11.1513022 Z" id="Shape"></path>
                </g>
            </g>
        </g>
    </g>
</svg>