<?xml version="1.0" encoding="UTF-8" standalone="no"?>
<svg width="517px" height="96px" viewBox="0 0 517 96" version="1.1" xmlns="http://www.w3.org/2000/svg" xmlns:xlink="http://www.w3.org/1999/xlink">
    <!-- Generator: Sketch 39.1 (31720) - http://www.bohemiancoding.com/sketch -->
    <title>Group 3</title>
    <desc>Created with Sketch.</desc>
    <defs>
        <ellipse id="path-1" cx="36.3061798" cy="36.3207547" rx="36.3061798" ry="36.3207547"></ellipse>
        <rect id="path-3" x="0" y="0" width="58.0090176" height="8.61851804" rx="3"></rect>
        <filter x="-50%" y="-50%" width="200%" height="200%" filterUnits="objectBoundingBox" id="filter-4">
            <feOffset dx="0" dy="2" in="SourceAlpha" result="shadowOffsetOuter1"></feOffset>
            <feGaussianBlur stdDeviation="2" in="shadowOffsetOuter1" result="shadowBlurOuter1"></feGaussianBlur>
            <feColorMatrix values="0 0 0 0 0   0 0 0 0 0   0 0 0 0 0  0 0 0 0.5 0" type="matrix" in="shadowBlurOuter1"></feColorMatrix>
        </filter>
        <path d="M25.7133716,15.4966402 C25.6232459,15.3444745 25.5352397,15.1850387 25.4495555,15.0183327 L24.146996,12.484091 C22.1822598,8.66152722 24.0712317,5.56138207 28.3669857,5.56138207 L29.6484472,5.56138207 C33.9378025,5.56138207 35.8335549,8.66078444 33.8684368,12.484091 L32.5658774,15.0183327 C32.4801947,15.1850358 32.3921885,15.3444703 32.3020613,15.496636 L32.3020613,52.7783632 L25.7133716,52.7783632 L25.7133716,15.4966402 Z M27.2361273,14.1893803 C28.2145364,16.0929596 29.7988253,16.0969008 30.7792601,14.1893803 L31.4422079,12.8995581 C32.420617,10.9959789 31.4707691,9.45282294 29.3278033,9.45282294 L28.687584,9.45282294 C26.5414215,9.45282294 25.5927446,10.9920377 26.5731794,12.8995581 L27.2361273,14.1893803 Z" id="path-5"></path>
        <filter x="-50%" y="-50%" width="200%" height="200%" filterUnits="objectBoundingBox" id="filter-6">
            <feOffset dx="0" dy="2" in="SourceAlpha" result="shadowOffsetOuter1"></feOffset>
            <feGaussianBlur stdDeviation="2" in="shadowOffsetOuter1" result="shadowBlurOuter1"></feGaussianBlur>
            <feColorMatrix values="0 0 0 0 0   0 0 0 0 0   0 0 0 0 0  0 0 0 0.5 0" type="matrix" in="shadowBlurOuter1"></feColorMatrix>
        </filter>
        <path d="M152.445292,29.9166792 C151.539085,26.7785503 150.336637,23.8845416 148.83791,21.234566 C147.339184,18.5845905 145.561651,16.2833305 143.505258,14.330717 C141.448866,12.3781034 139.078822,10.8613639 136.395056,9.78045283 C133.71129,8.69954177 130.696455,8.15909434 127.350461,8.15909434 C123.028551,8.15909434 119.368925,8.99591616 116.371472,10.6695849 C113.374019,12.3432537 110.916841,14.6096461 108.999865,17.4688302 C107.082889,20.3280143 105.688746,23.640434 104.817393,27.4061887 C103.946041,31.1719434 103.510371,35.146847 103.510371,39.3310189 C103.510371,43.5151907 104.068028,47.5075282 105.18336,51.3081509 C106.298691,55.1087737 107.954236,58.4386272 110.150045,61.2978113 C112.345854,64.1569954 115.099287,66.4408216 118.410427,68.1493585 C121.721567,69.8578953 125.538035,70.7121509 129.859944,70.7121509 C136.342808,70.7121509 141.936808,69.0733749 146.642112,65.7957736 C151.347417,62.5181723 155.51242,58.0551226 159.137247,52.4064906 L161.751292,54.498566 C159.381213,58.0551121 157.011169,61.1931939 154.64109,63.9129057 C152.271011,66.6326174 149.691845,68.9338774 146.903517,70.8167547 C144.115188,72.6996321 141.082926,74.1292027 137.80664,75.1055094 C134.530354,76.0818162 130.835874,76.5699623 126.72309,76.5699623 C122.05264,76.5699623 117.626234,75.6808391 113.443742,73.902566 C109.261249,72.124293 105.601622,69.6486951 102.464753,66.4756981 C99.3278832,63.3027011 96.8358519,59.5021353 94.9885843,55.0738868 C93.1413166,50.6456382 92.2176966,45.7816114 92.2176966,40.4816604 C92.2176966,35.1817093 93.1413166,30.3176825 94.9885843,25.889434 C96.8358519,21.4611854 99.3278832,17.6606196 102.464753,14.4876226 C105.601622,11.3146256 109.261249,8.83902776 113.443742,7.06075472 C117.626234,5.28248167 122.05264,4.39335849 126.72309,4.39335849 C129.302294,4.39335849 131.707191,4.55026258 133.937854,4.86407547 C136.168517,5.17788836 138.312012,5.50913033 140.368404,5.85781132 C142.424797,6.20649231 144.411451,6.55516807 146.328427,6.90384906 C148.245403,7.25253005 150.144923,7.4617355 152.027045,7.5314717 C152.027045,8.99593185 152.079325,10.7044431 152.183888,12.6570566 C152.28845,14.6096701 152.445291,16.6145558 152.654416,18.6717736 C152.86354,20.7289914 153.072662,22.7513108 153.281787,24.7387925 C153.490911,26.7262741 153.700033,28.4522191 153.909157,29.9166792 L152.445292,29.9166792 Z M161.693201,73.6410566 C163.435906,73.5015842 164.830049,73.2400774 165.875673,72.8565283 C166.921296,72.4729792 167.722928,71.8976642 168.280594,71.130566 C168.83826,70.3634679 169.186795,69.3174406 169.326212,67.9924528 C169.465628,66.6674651 169.535335,64.9938214 169.535335,62.9714717 L169.535335,10.4603774 C169.535335,7.74066565 169.117092,5.84038276 168.280594,4.7594717 C167.444095,3.67856063 165.457441,3.13811321 162.320571,3.13811321 L162.320571,1.88286792 L177.691156,0 L177.691156,62.9714717 C177.691156,64.9938214 177.760863,66.6674651 177.900279,67.9924528 C178.039696,69.3174406 178.405658,70.3634679 178.998178,71.130566 C179.590698,71.8976642 180.427184,72.4729792 181.507661,72.8565283 C182.588139,73.2400774 184.069416,73.5015842 185.951538,73.6410566 L185.951538,74.8963019 C183.929999,74.7568295 181.856211,74.6522268 179.730111,74.5824906 C177.60401,74.5127544 175.495368,74.4778868 173.404122,74.4778868 C171.382584,74.4778868 169.413356,74.5127544 167.49638,74.5824906 C165.579405,74.6522268 163.645031,74.7568295 161.693201,74.8963019 L161.693201,73.6410566 Z M193.479985,52.5110943 C193.479985,56.1373766 193.950509,59.1359881 194.89157,61.5070189 C195.832631,63.8780496 197.017653,65.7608987 198.446671,67.1556226 C199.875689,68.5503466 201.409247,69.5266387 203.04739,70.0845283 C204.685533,70.6424179 206.201664,70.9213585 207.595828,70.9213585 C210.523573,70.9213585 213.172446,70.4506462 215.542525,69.5092075 C217.912604,68.5677689 220.10838,67.0858969 222.129918,65.0635472 L223.907469,66.7372075 C221.049432,69.8056002 218.121731,72.1417278 215.124278,73.7456604 C212.126824,75.3495929 208.536905,76.1515472 204.354412,76.1515472 C201.356959,76.1515472 198.673233,75.5587984 196.303154,74.373283 C193.933075,73.1877677 191.911567,71.6187267 190.23857,69.6661132 C188.565573,67.7134997 187.293417,65.4819748 186.422064,62.9714717 C185.550711,60.4609686 185.115042,57.880768 185.115042,55.2307925 C185.115042,52.5808169 185.550711,50.0006163 186.422064,47.4901132 C187.293417,44.9796101 188.565573,42.7480852 190.23857,40.7954717 C191.911567,38.8428582 193.933075,37.2738172 196.303154,36.0883019 C198.673233,34.9027865 201.356959,34.3100377 204.354412,34.3100377 C209.861361,34.3100377 214.287767,35.8093435 217.633761,38.808 C220.979755,41.8066565 223.036116,46.3743089 223.802907,52.5110943 L193.479985,52.5110943 Z M214.59566,49.3729811 C214.386535,47.4901038 214.107706,45.7990264 213.759165,44.2996981 C213.410624,42.8003699 212.852967,41.5451371 212.086177,40.5339623 C211.319386,39.5227874 210.308632,38.7557007 209.053884,38.2326792 C207.799137,37.7096578 206.195872,37.4481509 204.244042,37.4481509 C202.780169,37.4481509 201.438306,37.8142605 200.218412,38.5464906 C198.998519,39.2787206 197.952911,40.2201452 197.081559,41.3707925 C196.210206,42.5214397 195.547988,43.81154 195.094884,45.2411321 C194.641781,46.6707241 194.415233,48.0479934 194.415233,49.3729811 L214.59566,49.3729811 Z M231.308119,43.9335849 C231.865784,41.7717628 232.64999,40.0458178 233.660759,38.7556981 C234.671528,37.4655785 235.839123,36.4892863 237.163579,35.8267925 C238.488035,35.1642986 239.98674,34.7458877 241.659737,34.5715472 C243.332734,34.3972067 245.110267,34.3100377 246.992388,34.3100377 C248.804802,34.3100377 250.599761,34.5018094 252.377321,34.8853585 C254.15488,35.2689076 255.758145,35.9139577 257.187164,36.8205283 C258.616182,37.7270989 259.76635,38.9300302 260.637703,40.4293585 C261.509056,41.9286867 261.944725,43.7592345 261.944725,45.9210566 L261.944725,65.2727547 C261.944725,66.5977425 262.293261,67.7658063 262.990343,68.7769811 C263.687426,69.788156 264.767887,70.2937358 266.231759,70.2937358 C267.625923,70.2937358 269.088792,70.0441983 270.169269,69.242232 C270.808052,69.7908116 270.997203,69.936685 271.460668,70.2929565 C270.519607,71.2343951 269.682304,72.1940334 268.63668,73.0657358 C267.591057,73.9374383 264.763526,75.4193201 261.944725,75.4193201 C259.125924,75.4193201 258.378706,74.5300755 257.646769,73.9024497 C256.914833,73.2748239 256.347682,72.7319885 255.720308,72.0346265 C255.092934,71.3372645 254.590548,70.5726817 254.102591,70.0845283 C251.871928,71.6187247 249.36247,73.0134277 246.574141,74.2686792 C243.785813,75.5239308 241.067233,76.1515472 238.418321,76.1515472 C236.954448,76.1515472 235.542878,75.9074741 234.183568,75.4193208 C232.824258,74.9311674 231.621809,74.2338159 230.576186,73.3272453 C229.530563,72.4206747 228.694077,71.3397799 228.066703,70.0845283 C227.439329,68.8292767 227.125647,67.3997061 227.125647,65.7957736 C227.125647,62.9365895 227.927279,60.6527633 229.530568,58.9442264 C231.133857,57.2356896 233.207645,55.9281555 235.751995,55.0215849 C238.296345,54.1150143 241.189192,53.5048318 244.430624,53.1910189 C247.672056,52.877206 250.930866,52.6854343 254.207152,52.6156981 L254.207152,44.6658113 C254.207152,42.085572 253.40552,40.0981202 251.802231,38.7033962 C250.198942,37.3086723 248.177434,36.6113208 245.737647,36.6113208 C243.925233,36.6113208 242.496236,37.5178777 241.450613,39.3310189 C240.40499,41.14416 239.882186,43.201347 239.882186,45.5026415 L231.308119,43.9335849 Z M254.724152,56.6952453 C252.423781,56.0676195 250.088591,55.7538113 247.718512,55.7538113 C246.394056,55.7538113 245.06962,55.9107154 243.745164,56.2245283 C242.420708,56.5383412 241.235686,57.043921 240.190063,57.741283 C239.144439,58.438645 238.290526,59.3277682 237.628298,60.4086792 C236.96607,61.4895903 236.634961,62.7971244 236.634961,64.3313208 C236.634961,66.7023515 237.454021,68.3934289 239.092164,69.4046038 C240.730307,70.4157786 242.56012,70.9213585 244.581658,70.9213585 C246.812321,70.9213585 248.851256,70.46808 250.698523,69.5615094 C252.545791,68.6549389 253.887654,67.8878522 254.724152,67.2602264 L254.724152,56.6952453 Z M271.44242,37.2389434 L286.708443,34.9376604 L286.708443,40.4816604 C288.590565,39.0172002 290.751487,37.6224972 293.191274,36.2975094 C295.631062,34.9725217 297.966252,34.3100377 300.196915,34.3100377 C302.148745,34.3100377 304.013412,34.5541108 305.790971,35.0422642 C307.56853,35.5304175 309.154369,36.3323718 310.548533,37.4481509 C311.942697,38.5639301 313.058012,40.0632359 313.89451,41.9461132 C314.731009,43.8289905 315.149252,46.1651181 315.149252,48.954566 L315.149252,67.3648302 C315.149252,69.6661247 315.776616,71.1828643 317.031364,71.9150943 C318.286112,72.6473244 320.098498,73.2226394 322.468578,73.6410566 L322.468578,74.8963019 C320.44704,74.7568295 318.286117,74.6522268 315.985746,74.5824906 C313.685375,74.5127544 311.350185,74.4778868 308.980106,74.4778868 C307.376817,74.4778868 305.825832,74.5127544 304.327106,74.5824906 C302.828379,74.6522268 301.381955,74.7568295 299.987791,74.8963019 L299.987791,73.6410566 C302.218454,73.2226394 303.943706,72.6473244 305.1636,71.9150943 C306.383494,71.1828643 306.993432,69.6661247 306.993432,67.3648302 L306.993432,50.5236226 C306.993432,46.9670766 306.24408,44.2125381 304.745353,42.2599245 C303.246626,40.307311 300.824302,39.3310189 297.478308,39.3310189 C296.293268,39.3310189 295.073393,39.5053567 293.818645,39.8540377 C292.563897,40.2027187 291.413729,40.673431 290.368106,41.2661887 C289.322483,41.8589464 288.451143,42.5039965 287.754061,43.2013585 C287.056979,43.8987205 286.708443,44.5612044 286.708443,45.1888302 L286.708443,67.3648302 C286.708443,69.6661247 287.370661,71.1828643 288.695117,71.9150943 C290.019573,72.6473244 292.006227,73.2226394 294.65514,73.6410566 L294.65514,74.8963019 C292.28506,74.7568295 289.932443,74.6522268 287.597218,74.5824906 C285.261993,74.5127544 282.909376,74.4778868 280.539297,74.4778868 C278.936008,74.4778868 277.385023,74.5127544 275.886297,74.5824906 C274.38757,74.6522268 272.836586,74.7568295 271.233297,74.8963019 L271.233297,73.6410566 C273.603376,73.2226394 275.415762,72.6473244 276.67051,71.9150943 C277.925258,71.1828643 278.552623,69.6661247 278.552623,67.3648302 L278.552623,43.0967547 C278.552623,41.0046688 277.838124,39.7145685 276.409106,39.2264151 C274.980087,38.7382617 273.324542,38.4941887 271.44242,38.4941887 L271.44242,37.2389434 Z M347.720249,37.2389434 L362.986271,34.9376604 L362.986271,40.4816604 C364.868393,39.0172002 367.029315,37.6224972 369.469103,36.2975094 C371.90889,34.9725217 374.24408,34.3100377 376.474743,34.3100377 C378.426573,34.3100377 380.29124,34.5541108 382.068799,35.0422642 C383.846359,35.5304175 385.432197,36.3323718 386.826361,37.4481509 C388.220525,38.5639301 389.33584,40.0632359 390.172339,41.9461132 C391.008837,43.8289905 391.42708,46.1651181 391.42708,48.954566 L391.42708,67.3648302 C391.42708,69.6661247 392.054445,71.1828643 393.309192,71.9150943 C394.56394,72.6473244 396.376327,73.2226394 398.746406,73.6410566 L398.746406,74.8963019 C396.724868,74.7568295 394.563946,74.6522268 392.263574,74.5824906 C389.963203,74.5127544 387.628013,74.4778868 385.257934,74.4778868 C383.654645,74.4778868 382.103661,74.5127544 380.604934,74.5824906 C379.106207,74.6522268 377.659784,74.7568295 376.265619,74.8963019 L376.265619,73.6410566 C378.496282,73.2226394 380.221535,72.6473244 381.441428,71.9150943 C382.661322,71.1828643 383.27126,69.6661247 383.27126,67.3648302 L383.27126,50.5236226 C383.27126,46.9670766 382.521908,44.2125381 381.023181,42.2599245 C379.524455,40.307311 377.102131,39.3310189 373.756136,39.3310189 C372.571097,39.3310189 371.351221,39.5053567 370.096473,39.8540377 C368.841725,40.2027187 367.691557,40.673431 366.645934,41.2661887 C365.600311,41.8589464 364.728971,42.5039965 364.031889,43.2013585 C363.334807,43.8987205 362.986271,44.5612044 362.986271,45.1888302 L362.986271,67.3648302 C362.986271,69.6661247 363.648489,71.1828643 364.972945,71.9150943 C366.297401,72.6473244 368.284056,73.2226394 370.932968,73.6410566 L370.932968,74.8963019 C368.562888,74.7568295 366.210272,74.6522268 363.875046,74.5824906 C361.539821,74.5127544 359.187204,74.4778868 356.817125,74.4778868 C355.213836,74.4778868 353.662852,74.5127544 352.164125,74.5824906 C350.665398,74.6522268 349.114414,74.7568295 347.511125,74.8963019 L347.511125,73.6410566 C349.881204,73.2226394 351.693591,72.6473244 352.948339,71.9150943 C354.203086,71.1828643 354.830451,69.6661247 354.830451,67.3648302 L354.830451,43.0967547 C354.830451,41.0046688 354.115952,39.7145685 352.686934,39.2264151 C351.257916,38.7382617 349.60237,38.4941887 347.720249,38.4941887 L347.720249,37.2389434 Z M420.005766,34.3100377 C423.185529,34.3100377 426.083706,34.8156176 428.700386,35.8267925 C431.317066,36.8379673 433.569364,38.2501041 435.457348,40.0632453 C437.345332,41.8763864 438.802701,44.0730437 439.829499,46.653283 C440.856298,49.2335223 441.369689,52.0926636 441.369689,55.2307925 C441.369689,58.3689214 440.856298,61.2280626 439.829499,63.8083019 C438.802701,66.3885412 437.345332,68.5851985 435.457348,70.3983396 C433.569364,72.2114808 431.317066,73.6236176 428.700386,74.6347925 C426.083706,75.6459673 423.185529,76.1515472 420.005766,76.1515472 C416.826003,76.1515472 413.927826,75.6459673 411.311146,74.6347925 C408.694466,73.6236176 406.442168,72.2114808 404.554184,70.3983396 C402.6662,68.5851985 401.208831,66.3885412 400.182032,63.8083019 C399.155234,61.2280626 398.641842,58.3689214 398.641842,55.2307925 C398.641842,52.0926636 399.155234,49.2335223 400.182032,46.653283 C401.208831,44.0730437 402.6662,41.8763864 404.554184,40.0632453 C406.442168,38.2501041 408.694466,36.8379673 411.311146,35.8267925 C413.927826,34.8156176 416.826003,34.3100377 420.005766,34.3100377 L420.005766,34.3100377 Z M418.217158,37.4481509 C416.362297,37.4481509 414.755878,37.936297 413.397855,38.9126038 C412.039831,39.8889105 410.913682,41.1615771 410.019374,42.7306415 C409.125066,44.299706 408.462625,46.0779523 408.032032,48.065434 C407.601439,50.0529156 407.386146,52.0229336 407.386146,53.9755472 C407.386146,56.2071055 407.667683,58.4386304 408.230766,60.6701887 C408.793849,62.901747 409.671583,64.9415002 410.863994,66.7895094 C412.056405,68.6375187 413.546896,70.1368244 415.335513,71.2874717 C417.124129,72.438119 419.277061,73.013434 421.794373,73.013434 C423.649235,73.013434 425.255653,72.5252879 426.613677,71.5489811 C427.971701,70.5726744 429.09785,69.3000078 429.992158,67.7309434 C430.886466,66.1618789 431.548907,64.4010664 431.9795,62.4484528 C432.410093,60.4958393 432.625386,58.5083875 432.625386,56.4860377 C432.625386,54.3242156 432.327287,52.1101245 431.731082,49.8436981 C431.134876,47.5772717 430.240582,45.5200847 429.048171,43.6720755 C427.85576,41.8240662 426.365268,40.3247605 424.576652,39.1741132 C422.788035,38.0234659 420.668225,37.4481509 418.217158,37.4481509 L418.217158,37.4481509 Z M437.864133,35.565283 C439.188589,35.6350192 440.356184,35.7047544 441.366953,35.7744906 C442.377722,35.8442268 443.336196,35.8965281 444.242403,35.9313962 C445.148609,35.9662643 446.072229,35.9836981 447.01329,35.9836981 L450.202425,35.9836981 C452.084547,35.9836981 453.96664,35.9488305 455.848762,35.8790943 C457.730884,35.8093581 459.612978,35.7047554 461.495099,35.565283 L461.495099,36.9251321 C460.031227,36.9948683 458.689364,37.5004481 457.46947,38.4418868 C456.249576,39.3833255 455.639639,40.655992 455.639639,42.2599245 C455.639639,43.5151761 456.057882,45.2062535 456.89438,47.3332075 C457.730879,49.4601616 458.706779,51.6916864 459.822111,54.0278491 C460.937442,56.3640117 462.052757,58.6304041 463.168088,60.8270943 C464.283419,63.0237846 465.085052,64.7845971 465.573009,66.1095849 L476.133751,45.3980377 C475.78521,44.4914672 475.34954,43.5500426 474.826728,42.5737358 C474.303917,41.5974291 473.676552,40.7083059 472.944616,39.9063396 C472.21268,39.1043733 471.358767,38.4244556 470.382852,37.866566 C469.406937,37.3086765 468.291622,36.9600007 467.036875,36.8205283 L467.036875,35.565283 C467.733957,35.6350192 468.413602,35.7047544 469.07583,35.7744906 C469.738058,35.8442268 470.452556,35.8965281 471.219346,35.9313962 C471.986137,35.9662643 472.874903,35.9836981 473.885672,35.9836981 L477.493054,35.9836981 C479.723717,35.9836981 481.919493,35.9488305 484.080448,35.8790943 C486.241402,35.8093581 488.402324,35.7047554 490.563279,35.565283 L490.563279,36.8205283 C488.750866,36.8902645 487.199881,37.3958443 485.910279,38.337283 C484.620677,39.2787217 483.975886,40.6559909 483.975886,42.4691321 C483.975886,43.4454388 484.411556,45.0319135 485.282908,47.2286038 C486.154261,49.425294 487.165015,51.7614216 488.3152,54.2370566 C489.465386,56.7126916 490.580701,59.1011206 491.661178,61.4024151 C492.741655,63.7037096 493.491007,65.4122208 493.909257,66.528 C494.466922,65.481957 495.320835,63.843181 496.471021,61.6116226 C497.621206,59.3800643 498.753948,57.0439367 499.869279,54.6031698 C500.98461,52.1624029 501.960511,49.8611429 502.797009,47.6993208 C503.633508,45.5374986 504.051751,43.9684577 504.051751,42.9921509 C504.051751,40.900065 503.598654,39.418193 502.692448,38.5464906 C501.786241,37.6747881 500.32239,37.0994731 498.300852,36.8205283 L498.300852,35.565283 C499.904141,35.7047554 501.472552,35.8093581 503.006133,35.8790943 C504.539714,35.9488305 506.108125,35.9836981 507.711414,35.9836981 C509.244995,35.9836981 510.778552,35.9488305 512.312133,35.8790943 C513.845714,35.8093581 515.379271,35.7047554 516.912852,35.565283 L516.912852,36.8205283 C515.239855,37.0297369 513.776004,37.674787 512.521257,38.7556981 C511.266509,39.8366092 510.133767,41.1267095 509.122998,42.6260377 C508.112229,44.125366 507.206036,45.7641421 506.404391,47.5424151 C505.602747,49.3206881 504.818541,50.976898 504.051751,52.5110943 L492.759077,75.7331321 L490.458717,75.7331321 L477.80674,48.2223396 L464.318268,75.7331321 L461.704223,75.7331321 C460.728308,73.3621014 459.665274,70.8865035 458.515088,68.3062642 C457.364903,65.7260248 456.197307,63.163258 455.012268,60.6178868 C453.827228,58.0725156 452.659633,55.5969177 451.509448,53.1910189 C450.359262,50.78512 449.296228,48.571029 448.320313,46.5486792 C447.135273,44.1079123 445.636569,41.9809902 443.824155,40.1678491 C442.011742,38.3547079 440.025088,37.2389455 437.864133,36.8205283 L437.864133,35.565283 Z" id="path-7"></path>
    </defs>
    <g id="Symbols" stroke="none" stroke-width="1" fill="none" fill-rule="evenodd">
        <g id="Logo+Slogan">
            <g id="Group-3">
                <g id="Group-2">
                    <g id="Group" transform="translate(0.000000, 2.179245)">
                        <g id="Group-4-Copy-2">
                            <mask id="mask-2" fill="white">
                                <use xlink:href="#path-1"></use>
                            </mask>
                            <use id="Mask" fill="#2794EB" xlink:href="#path-1"></use>
                            <g mask="url(#mask-2)">
                                <g transform="translate(7.261236, 21.792453)">
                                    <g id="Rectangle-1-Copy" fill="none">
                                        <use fill="black" fill-opacity="1" filter="url(#filter-4)" xlink:href="#path-3"></use>
                                        <use fill="#FFFFFF" fill-rule="evenodd" xlink:href="#path-3"></use>
                                    </g>
                                    <rect id="Rectangle-1" fill="#4F4E4F" fill-rule="evenodd" x="0" y="0" width="58.0090176" height="2.94124028" rx="1.2"></rect>
                                    <g id="Combined-Shape" fill="none">
                                        <use fill="black" fill-opacity="1" filter="url(#filter-6)" xlink:href="#path-5"></use>
                                        <use fill="#FFFFFF" fill-rule="evenodd" xlink:href="#path-5"></use>
                                    </g>
                                </g>
                            </g>
                        </g>
                    </g>
                    <g id="Clean-now-Copy-6">
                        <use fill="#FFFFFF" xlink:href="#path-7"></use>
                        <use fill="#2794EB" xlink:href="#path-7"></use>
                    </g>
                </g>
            </g>
        </g>
    </g>
</svg>